PathFileType	4	(X/Y/Z)	Kaydara	
DataRate	CameraRate	NumFrames	NumMarkers	Units	OrigDataRate	OrigDataStartFrame	OrigNumFrames	
240.00	240.00	4	72	mm	240.00	45	359	
Frame#	Time	Hips			RightUpLeg			RightLeg			RightFoot			RightFoot_End			LeftUpLeg			LeftLeg			LeftFoot			LeftFoot_End			Spine			Spine1			Spine2			Spine3			Neck			Head			Head_End			RightShoulder			RightArm			RightForeArm			RightHand			RightHandThumb1			RightHandThumb2			RightHandThumb3			RightHandThumb3_End			RightInHandIndex			RightHandIndex1			RightHandIndex2			RightHandIndex3			RightHandIndex3_End			RightInHandMiddle			RightHandMiddle1			RightHandMiddle2			RightHandMiddle3			RightHandMiddle3_End			RightInHandRing			RightHandRing1			RightHandRing2			RightHandRing3			RightHandRing3_End			RightInHandPinky			RightHandPinky1			RightHandPinky2			RightHandPinky3			RightHandPinky3_End			LeftShoulder			LeftArm			LeftForeArm			LeftHand			LeftHandThumb1			LeftHandThumb2			LeftHandThumb3			LeftHandThumb3_End			LeftInHandIndex			LeftHandIndex1			LeftHandIndex2			LeftHandIndex3			LeftHandIndex3_End			LeftInHandMiddle			LeftHandMiddle1			LeftHandMiddle2			LeftHandMiddle3			LeftHandMiddle3_End			LeftInHandRing			LeftHandRing1			LeftHandRing2			LeftHandRing3			LeftHandRing3_End			LeftInHandPinky			LeftHandPinky1			LeftHandPinky2			LeftHandPinky3			LeftHandPinky3_End			
		X1	Y1	Z1	X2	Y2	Z2	X3	Y3	Z3	X4	Y4	Z4	X5	Y5	Z5	X6	Y6	Z6	X7	Y7	Z7	X8	Y8	Z8	X9	Y9	Z9	X10	Y10	Z10	X11	Y11	Z11	X12	Y12	Z12	X13	Y13	Z13	X14	Y14	Z14	X15	Y15	Z15	X16	Y16	Z16	X17	Y17	Z17	X18	Y18	Z18	X19	Y19	Z19	X20	Y20	Z20	X21	Y21	Z21	X22	Y22	Z22	X23	Y23	Z23	X24	Y24	Z24	X25	Y25	Z25	X26	Y26	Z26	X27	Y27	Z27	X28	Y28	Z28	X29	Y29	Z29	X30	Y30	Z30	X31	Y31	Z31	X32	Y32	Z32	X33	Y33	Z33	X34	Y34	Z34	X35	Y35	Z35	X36	Y36	Z36	X37	Y37	Z37	X38	Y38	Z38	X39	Y39	Z39	X40	Y40	Z40	X41	Y41	Z41	X42	Y42	Z42	X43	Y43	Z43	X44	Y44	Z44	X45	Y45	Z45	X46	Y46	Z46	X47	Y47	Z47	X48	Y48	Z48	X49	Y49	Z49	X50	Y50	Z50	X51	Y51	Z51	X52	Y52	Z52	X53	Y53	Z53	X54	Y54	Z54	X55	Y55	Z55	X56	Y56	Z56	X57	Y57	Z57	X58	Y58	Z58	X59	Y59	Z59	X60	Y60	Z60	X61	Y61	Z61	X62	Y62	Z62	X63	Y63	Z63	X64	Y64	Z64	X65	Y65	Z65	X66	Y66	Z66	X67	Y67	Z67	X68	Y68	Z68	X69	Y69	Z69	X70	Y70	Z70	X71	Y71	Z71	X72	Y72	Z72	

45	0.183	2198.941	914.58397	126.699	2255.302379485264	898.1984136752628	53.45387945897304	2160.70406127964	501.2324390774326	-41.35356170961582	2142.3286966722317	109.72321312677872	-116.873117559978	1990.556500895948	32.83856736974628	-29.739067742563353	2157.2276562017646	904.9365416849167	211.2187166691514	2066.3168872615024	503.0875274695257	286.51556993522956	1995.2088442538782	78.67435864779488	378.70780290517234	1873.494093336676	-3.6659323919462876	256.45875511906746	2130.727237985373	1031.3959022583858	79.67138879156184	2067.8901561929583	1087.412712811996	31.070464362050636	1999.5209793209488	1138.568363002066	-23.275614178545727	1930.407203600571	1175.689594661633	-80.5594619937898	1855.4899817652506	1215.8868966483017	-140.08795608281503	1785.6336120254766	1252.863497028738	-191.67545425064176	1646.250024399375	1330.419855891693	-197.61817669404394	1901.417566204527	1204.8412732217766	-144.79945084326974	1964.3174811412885	1199.393439516086	-264.17592185055423	2053.0357445957616	933.4098720330065	-308.8169495805395	2066.366962404731	793.694834875097	-518.468194481131	2072.6636815964894	802.3819037589993	-548.6417224095693	2054.512646288014	803.8895593754293	-576.864654799098	2041.7386834668744	801.9203330353095	-595.9620889680348	2030.9753110080803	797.6958660283406	-611.4062832249942	2075.335831475538	792.1663149876273	-549.9645417196613	2077.40170087799	779.4537602731988	-593.647034675174	2065.093994872546	771.6206205634255	-621.1015066318356	2049.8459597407405	770.7529186125702	-633.6179789486453	2032.1012001029314	772.7343012538661	-640.9074120723596	2074.2472771082294	784.44534185896	-546.7891958274597	2075.677382095234	767.8693288990822	-587.6790768890448	2062.079726690898	758.3455526822803	-617.0730255271158	2043.6031298811017	756.8302335737402	-631.902856717484	2024.1480589371681	758.7704883645073	-639.7471539042873	2073.564605762934	779.282318502986	-543.4660548114679	2074.66064922699	759.849769627282	-577.3290716130637	2062.6338810674124	750.5774494984544	-602.3072918704589	2044.7187895688432	748.5999698798371	-616.2710799497416	2026.3820620854192	750.1798600010983	-623.485212082753	2071.6220942697037	773.9564291333296	-538.0951272184793	2071.8972704715397	752.7362643143015	-565.9742960448048	2061.987858101163	743.8808909053635	-584.8269547869363	2048.7856407851177	741.7465537132815	-594.4564005921947	2032.464659057515	742.7478553522299	-600.5270764897131	1859.20965350802	1200.3716837576333	-94.62028150200616	1807.3584008231312	1129.08828964998	7.858320120858416	1955.6248389319483	972.1290384622226	-175.10805967125003	2061.2916208400097	859.0207129960501	-401.37296973680856	2091.407961794811	870.1327849178658	-422.3377990132001	2131.6788988398353	862.275968650108	-431.490939050764	2158.7757749500774	853.5628949749427	-438.4826832031042	2180.5544431366297	843.526097652178	-444.83965485890536	2089.9422864732483	860.5153384109327	-428.29057434817855	2133.813703549386	846.5174204559327	-463.85470936764716	2168.783582064587	831.5241952903718	-478.9051336389814	2190.3291110376467	823.0468025078683	-479.67567453909976	2208.0306503464353	816.5992916544458	-474.52172581127473	2086.048439897094	851.9363286426845	-428.2712438118211	2126.7318478373013	833.6442823829594	-462.95174435677296	2164.2403996291114	816.1905526605408	-479.24472644633914	2189.9221120765774	805.4383309624841	-480.111937405613	2209.1390364711956	798.1285791519015	-474.44222834615647	2082.1353618150542	846.2618110751972	-427.4596420868872	2115.0745033691032	825.0284760041926	-458.1564034983311	2147.038531101674	808.7269516321577	-472.16866786274136	2171.4236694248884	797.7773676629693	-472.90489553360806	2189.309070410106	790.6303593489101	-467.5264162987944	2076.6894892201312	839.8959258913465	-424.6305522145717	2103.4151203465726	816.5902653966009	-451.42054315606737	2127.730756257733	801.9303448539262	-462.2118761766979	2144.898206994934	793.1666707790395	-462.5412803160067	2160.385426109408	786.3884096163013	-457.6573434029054
46	0.188	2198.941	914.58397	126.699	2255.3134892716344	898.2002116367107	53.4596126669792	2160.7103940867005	501.23370839952634	-41.34148779507709	2142.3185021167187	109.72328256554403	-116.85479062541133	1990.548895089529	32.84073550236423	-29.71440808579425	2157.21462913057	904.934182301759	211.21405011214898	2066.291053705722	503.085874667136	286.49862681871053	1995.1752443730081	78.6764116612844	378.70450719931426	1873.460590433846	-3.6616633709975797	256.45385656821776	2130.735281687936	1031.3983220719174	79.66632567802205	2067.908941118543	1087.4206853787334	31.05867154537262	1999.5537703579976	1138.584750876344	-23.296350507839108	1930.45781996667	1175.7182204679282	-80.59341131423668	1855.5586030694485	1215.9280590762198	-140.1357252364558	1785.7177685926308	1252.9160003379516	-191.73568926803077	1646.323161165084	1330.4537722040113	-197.67828324607274	1901.4911159047788	1204.8915780996217	-144.83794546547992	1964.467312459698	1199.4890868639081	-264.18993564196967	2053.180739209034	933.4973130697787	-308.9114742614297	2066.8833173044986	794.3020792746046	-520.4141405325789	2073.61567239838	803.3969624539835	-550.9446768529197	2055.6390949635934	805.0420969972175	-579.7954953247695	2042.9382478247335	803.1176553897302	-599.3533353336363	2032.1944432641658	798.8869368767131	-615.2011453901229	2076.1717326286343	793.0529991278665	-552.3702793860266	2078.471353315743	780.505486155311	-596.8973273952565	2066.233597209398	772.6971258740069	-625.0086088706273	2050.9994257648373	771.8240909886437	-637.8869544200633	2033.2461604639193	773.7870676000589	-645.4445653212105	2074.9390608919925	785.1834150372932	-549.2317654453531	2076.5192329001115	768.6880220315885	-590.9653049282484	2062.978015541659	759.1710287827863	-621.0781706063901	2044.5086029537047	757.639553255513	-636.3456454646486	2025.039583558283	759.5549456536986	-644.4838936789257	2074.149275820545	779.9118021137471	-545.9127129572336	2075.288793331543	760.4590384497689	-580.5342468867098	2063.2906432774025	751.1717942281979	-606.1400091901245	2045.3715553823924	749.1676620244633	-620.5264343164473	2027.0165342234143	750.7189298741105	-628.0171882797961	2072.0712482780177	774.4511359996696	-540.5250403101135	2072.305082824878	753.1314555647034	-569.0885845912376	2062.386294383655	744.231705645409	-588.4419007626227	2049.1655408342835	742.0622423927356	-598.3787222097307	2032.8193645386082	743.0291606008567	-604.6939243194207	1859.2608786441128	1200.394907974087	-94.66795785327885	1807.231763865292	1128.8635433473125	7.680974551782617	1955.8704963460177	972.4455398633023	-176.22101483002731	2061.628068406187	859.4921485734191	-402.63022189214695	2091.760196028138	870.592857896679	-423.5672232304608	2132.0516858661695	862.7080938281701	-432.7203955950118	2159.162714260826	853.9791713728449	-439.71903233766517	2180.9530392351917	843.9322522744102	-446.08762369960243	2090.2951214545533	860.9901100813174	-429.5411697269682	2134.1920997244774	846.9986067854433	-465.12448976274294	2169.1811522883977	831.99494114796	-480.1930587185891	2190.7375105738097	823.4994379217673	-480.97043110339376	2208.447279123362	817.0290950122256	-475.8191337155986	2086.4000072515314	852.4199943454493	-429.5400788256686	2127.107660218208	834.1390223609404	-464.2491572356656	2164.636886132273	816.6750359970866	-480.56429009400205	2190.331544800746	805.9015049882158	-481.4408708117037	2209.557415910009	798.5670380502323	-475.77461055341513	2082.485370327352	846.7517772367158	-428.7408732169389	2115.4448579502805	825.5343452401013	-459.4740089825117	2147.426610918599	809.2250212718178	-473.5079388069594	2171.8240825247253	798.2554894753004	-474.2544557493133	2189.7178231287344	791.0855283901951	-468.8798126058596	2077.037039737896	840.3915725090109	-425.92551731675024	2103.77978927907	817.1046008161198	-452.75734124018055	2128.1090746423783	802.4401401729772	-463.56954246365063	2145.285257699123	793.6627433384821	-463.9081552603975	2160.779713272788	786.864623285615	-459.0285955763658
47	0.192	2198.941	914.58397	126.699	2255.321469410569	898.2023350930853	53.463171646377155	2160.7137763835963	501.2363522825324	-41.33599246940796	2142.303446210137	109.72522585379043	-116.84520338622795	1990.534928655941	32.84640044448401	-29.69966245980403	2157.2049070350454	904.9312165086254	211.21072766684705	2066.2680684788415	503.0843581029405	286.48655805347965	1995.147081417267	78.6785749224489	378.7081200482752	1873.433717929266	-3.656723498581556	256.4543007718553	2130.742688094113	1031.401984698151	79.66507833215222	2067.9282006159633	1087.4326260667297	31.05230500948156	1999.5876365890304	1138.6071740309203	-23.310537126829278	1930.5091469972785	1175.7530763726738	-80.62021855415175	1855.6274990571274	1215.9755629517983	-140.17569571157526	1785.801911934163	1252.975099145861	-191.78753019235361	1646.3977562186174	1330.4956462169212	-197.73692477656374	1901.5644882161632	1204.9475295232307	-144.86897573998286	1964.6138723416382	1199.5855293182285	-264.1942268351783	2053.3186237265677	933.5907669323383	-308.9805782837356	2067.351240781919	794.8891080863872	-522.1431771355373	2074.6678464004167	804.5692837896637	-553.0997936570388	2056.955360508104	806.4526469235371	-582.7642961629318	2044.3751514863354	804.6248191654687	-602.9260141697744	2033.6777867493377	800.4153693024984	-619.3090939470768	2077.0714557276215	794.0520261692913	-554.6793524035103	2079.706350775564	781.7845464809334	-600.3114133975929	2067.5909804215	774.0568323463403	-629.2909150762069	2052.3975312680886	773.2059484946006	-642.6474372350876	2034.654117535205	775.1683798406046	-650.5592866446489	2075.6497444595034	785.978811912928	-551.6083417108657	2077.454713994666	769.6464459923934	-594.4561637503044	2064.0208734231346	760.1895336566336	-625.5218753869758	2045.5880348362502	758.6713842496943	-641.3688655810106	2026.1236885044511	760.5796686835392	-649.8959864708199	2074.718625409223	780.5569525118553	-548.3082379130614	2075.9391998478054	761.1220997533335	-583.943245871049	2064.007530595215	751.8584232402475	-610.3833308946388	2046.1093226012224	749.8518468857819	-625.3307719054951	2027.7518733166473	751.3891814412141	-633.1881237324851	2072.4618508253334	774.9089977487646	-542.9146798034147	2072.6625579278307	753.4929325994178	-572.4026779507805	2062.754349139837	744.5670365519716	-592.4256274233627	2049.5281911504467	742.3740145203282	-602.7724005577178	2033.1679886058196	743.3160565006283	-609.4127780684611	1859.3131472949954	1200.4251114677293	-94.70794765525933	1807.1237235349342	1128.6801472673815	7.523877787361077	1956.321344197052	972.9965754011253	-177.50363549587556	2062.126417930964	860.1784176283676	-404.0566574896252	2092.249967740917	871.2338135084009	-424.96593898910527	2132.549804172924	863.3055788586072	-434.1284315144209	2159.6683970214663	854.5530669307449	-441.1379737011075	2181.4665252481814	844.4921994033688	-447.51943000061897	2090.789119412628	861.6522502701523	-430.95044256938337	2134.6914100638633	847.6426644358601	-466.5356735745047	2169.6909081840554	832.6190255156918	-481.62009466423683	2191.255623957258	824.1030074985197	-482.41155145169705	2208.9735671998	817.6102208695421	-477.27476343176085	2086.8989036343	853.1005881925555	-430.96197702740665	2127.6143875299385	834.8119667298915	-465.67974458342144	2165.155648478102	817.3286709926849	-482.0138536854836	2190.860694486979	806.5315784751135	-482.9082303707009	2210.095660302674	799.173135500929	-477.2582392914483	2082.987536060662	847.4459897611835	-430.17152316963245	2115.9567150895427	826.2338568258551	-460.9197001829274	2147.9495960058653	809.9102508483203	-474.9718717565673	2172.3574273089203	798.9193481501744	-475.7364597879503	2190.2598804815207	791.7274853334739	-470.3775420776924	2077.5432608640813	841.1010924133411	-427.3671332527025	2104.2972102259455	817.8288023546651	-454.21911490178763	2128.636362709767	803.1568596986641	-465.04851401469637	2145.8205659363457	794.3657881761089	-465.4015628814412	2161.323005165509	787.5493654020503	-460.536653707064
48	0.196	2198.941	914.58397	126.699	2255.3265658935284	898.2061625667176	53.46430504011331	2160.7147078070543	501.2415965473944	-41.33696456838411	2142.284037590459	109.73017252404684	-116.84373014491172	1990.5159345962343	32.85504147651974	-29.694234901616014	2157.1984109308323	904.9262026866504	211.20865734144596	2066.251195590343	503.081108289631	286.4811272040542	1995.1262078135453	78.67876863076613	378.71809620432185	1873.4144642924643	-3.6533776341534216	256.4605246559042	2130.7487031545993	1031.4071088585572	79.6691847207918	2067.9468014629833	1087.4480340548928	31.05259756156559	1999.6212672549739	1138.6343449538426	-23.317427465117486	1930.560112492759	1175.7923257055186	-80.63978870666739	1855.6958486925603	1216.0270050836968	-140.20848016267925	1785.8852994207552	1253.0376507202616	-191.83223393647765	1646.4731810465246	1330.5420668584998	-197.79893408189423	1901.6366023134765	1205.0061362716076	-144.89271115862078	1964.7515140345388	1199.6734469625346	-264.1880579933387	2053.4457718065273	933.680556696986	-309.02673033106333	2067.652018784383	795.3207736053823	-523.1088384851099	2075.444039947292	805.5251122992282	-554.3689903723426	2057.969360464802	807.6627186817103	-584.6825661168684	2045.5057086699987	805.9543015683812	-605.3345432768443	2034.8635500739697	801.7950827765494	-622.1590459952864	2077.7308584981092	794.8658419213727	-556.0973526413297	2080.6650882862255	782.8969381499784	-602.6324807684538	2068.6756286517098	775.2886486921477	-632.3266381645956	2053.531959305066	774.4873007617839	-646.073551519377	2035.810523425007	776.4740672336196	-654.2721674475287	2076.16139963256	786.6212473482152	-553.1030256981655	2078.1784388404017	770.4874304324132	-596.8731265048898	2064.8614229082004	761.1371400072464	-628.7259629885184	2046.478771547219	759.6673863681013	-645.0474496465025	2027.0336753522752	761.5967702722426	-653.8900476191355	2075.118833859192	781.0712679899798	-549.8336077041857	2076.4344050144878	761.7048337948237	-586.3204935723198	2064.5831985939894	752.509556465608	-613.4526509448228	2046.7220534772944	750.5366311150076	-628.8609719681485	2028.3773284742513	752.087628713756	-637.0164638899009	2072.7204049027728	775.2624314671399	-544.452765177579	2072.9229419331973	753.8119795027206	-574.7287359433238	2063.045415639319	744.9022739726803	-595.3115346812264	2049.8299655803476	742.7151348055522	-605.9972153544539	2033.4716385197505	743.6585389465399	-612.9032731483585	1859.365739313964	1200.4608790802947	-94.74085290397576	1807.0826428161442	1128.619113480196	7.425648532812993	1956.6727078019903	973.4971276995021	-178.42093532075071	2062.491068921772	860.7918182595051	-405.1130042188853	2092.610532846023	871.8093493221829	-425.99392705187523	2132.9179455016115	863.8386297291498	-435.1628182731938	2160.042759515255	855.0622939212004	-442.1819131673685	2181.846881237725	844.9864945704428	-448.5756929082404	2091.151765863089	862.2468231610324	-431.9918464929016	2135.058526393076	848.2218139616805	-467.5828929863951	2170.066109381154	833.1775535381576	-482.6833836605893	2191.6374652875484	824.6397859387938	-483.48682633304736	2209.3619906109857	818.1229768503525	-478.36130603756357	2087.264199708348	853.7109007698937	-432.01761168445574	2127.985478174844	835.4157547302478	-466.7487443137261	2165.53590262388	817.9120711135059	-483.1022626770072	2191.2491210914113	807.0897536921049	-484.01199758868063	2210.49136960979	799.7055187536628	-478.3747747879163	2083.3545478558817	848.0679525557675	-431.23697495979883	2116.330280532987	826.8604818842833	-462.0053969716372	2148.3314886145713	810.5212723336291	-476.07637889930595	2172.7473835001333	799.5071915746158	-476.856789566509	2190.6567696424195	792.291625032272	-471.5103540593574	2077.912462011098	841.7358647863837	-428.4444222713289	2104.6736271552045	818.4761954309898	-455.321978221342	2129.0199492777324	803.7951233278623	-466.1693080633167	2146.2102792254545	794.9887724731481	-466.53528657949903	2161.7189988721902	788.1522886457382	-461.68223224225926
